# xmcd CD database file
#
# Track frame offsets:
#	150
#	20290
#	36265
#	62332
#	75850
#	96122
#	115675
#	133330
#	153752
#	174515
#	189930
#	208950
#
# Disc length: 3406 seconds
#
# Revision: 0
# Processed by: cddbd v1.5.1PL0 Copyright (c) Steve Scherf et al.
# Submitted via: CDex 1.51
#
DISCID=8e0d4c0c
DTITLE=Nite Flyte - Ascension
DYEAR=1998
DGENRE=Jazz
TTITLE0=Lift Off
TTITLE1=Take Me Up
TTITLE2=Dawn
TTITLE3=Time For Thought
TTITLE4=Company (featuring Cathi Ogden)
TTITLE5=Cross Country
TTITLE6=Liaison
TTITLE7=The Love I Give
TTITLE8=Souvenirs
TTITLE9=Square Route
TTITLE10=Randon Tandem (Live)
TTITLE11=Ascension (Don't Ever Wonder)
EXTD=YEAR: 1998
EXTT0=
EXTT1=
EXTT2=
EXTT3=
EXTT4=
EXTT5=
EXTT6=
EXTT7=
EXTT8=
EXTT9=
EXTT10=
EXTT11=
PLAYORDER=
